<svg width="17" height="17" fill="none" xmlns="http://www.w3.org/2000/svg"><path fill-rule="evenodd" clip-rule="evenodd" d="M16.994 8.5c0 4.688-3.803 8.489-8.494 8.489S.006 13.189.006 8.5C.006 3.812 3.809.011 8.5.011s8.494 3.8 8.494 8.489zM6.093 11.878H4.444c-.346 0-.517 0-.621-.067a.419.419 0 0 1-.19-.327c-.007-.123.079-.273.25-.573l4.07-7.17c.174-.305.261-.457.372-.513a.42.42 0 0 1 .38 0c.11.056.198.208.371.513l.837 1.46.004.007c.187.326.282.492.324.666.045.19.045.39 0 .58-.042.175-.136.342-.326.673l-2.138 3.777-.006.01c-.188.33-.283.496-.416.622a1.244 1.244 0 0 1-.507.294c-.173.048-.367.048-.755.048zm4.163 0h2.362c.349 0 .524 0 .628-.069a.418.418 0 0 0 .19-.33c.006-.118-.078-.262-.242-.545-.005-.01-.01-.02-.017-.03l-1.183-2.023-.013-.022c-.166-.281-.25-.423-.358-.478a.416.416 0 0 0-.378 0c-.108.056-.196.204-.37.503l-1.178 2.022-.004.007c-.173.298-.26.447-.253.569a.422.422 0 0 0 .19.33c.102.066.277.066.626.066z" fill="#E84142"/></svg>