<svg width="24" height="18" fill="none" xmlns="http://www.w3.org/2000/svg"><path d="M10.802 14.524a.702.702 0 1 1-.001 1.404.702.702 0 0 1 .001-1.405zm11.024-4.347a.704.704 0 1 1 .001-1.408.704.704 0 0 1 0 1.408zm0-2.877a2.176 2.176 0 0 0-2.174 2.174c0 .233.04.465.115.691l-7.18 3.824a2.164 2.164 0 0 0-1.785-.938c-.829 0-1.584.476-1.95 1.216l-6.45-3.401c-.683-.358-1.193-1.48-1.139-2.503.028-.533.212-.947.493-1.107.178-.1.392-.092.62.027l.042.023c1.71.9 7.304 3.847 7.54 3.956.363.17.565.237 1.185-.056L22.707 5.19c.17-.064.368-.227.368-.474 0-.342-.354-.477-.355-.477-.658-.315-1.669-.788-2.655-1.25C17.957 2.003 15.568.885 14.52.335c-.906-.474-1.635-.074-1.765.006l-.252.125C7.78 2.801 1.46 5.931 1.1 6.15.457 6.542.058 7.323.006 8.292c-.08 1.537.703 3.14 1.824 3.728l6.822 3.518a2.175 2.175 0 0 0 2.15 1.861 2.177 2.177 0 0 0 2.173-2.14l7.514-4.072A2.171 2.171 0 0 0 24 9.473 2.176 2.176 0 0 0 21.826 7.3" fill="#fff"/></svg>