<svg width="26" height="17" fill="none" xmlns="http://www.w3.org/2000/svg"><path d="M1.926 2.003c.644.351 9.598 5.395 9.931 5.577.335.181.674.266 1.202.266.527 0 .867-.085 1.2-.266.335-.182 9.288-5.226 9.933-5.577.24-.127.644-.357.732-.617.152-.46-.012-.636-.662-.636H1.856c-.65 0-.815.182-.663.636.088.266.493.49.733.617z" fill="#fff"/><path d="M24.701 2.276c-.48.254-4.793 3.427-7.646 5.334l4.816 5.6c.117.122.17.267.106.34-.07.066-.223.03-.346-.085l-5.777-5.038A65.45 65.45 0 0 1 14.26 9.47c-.451.236-.768.266-1.201.266-.434 0-.75-.03-1.202-.266-.11-.06-.72-.46-1.593-1.042l-5.778 5.038c-.117.12-.275.157-.345.085-.07-.067-.018-.218.1-.34l4.81-5.6C6.197 5.703 1.838 2.53 1.357 2.276c-.515-.273-.544.048-.544.296v12.413c0 .563.802 1.265 1.376 1.265H23.928c.574 0 1.26-.708 1.26-1.265V2.572c0-.254.035-.569-.487-.296z" fill="#fff"/></svg>