<svg width="100" height="100" fill="none" xmlns="http://www.w3.org/2000/svg"><g filter="url(#a)"><rect x="30" y="25" width="40" height="40" rx="10" fill="#FF4267"/></g><path d="M50.367 46.682v1.297c.472-.08.708-.285.708-.615 0-.351-.387-.535-.708-.682zM48.982 44.203c0 .368.333.533.672.682v-1.224c-.448.066-.672.247-.672.542z" fill="#fff"/><path d="m54 39-2-2-2 2-2-2-2 2-2.667-2v15.333c0 .369.299.667.667.667h12a.667.667 0 0 0 .667-.667V37L54 39zm-3.633 10.219v1.068h-.713V49.24c-.847-.017-1.59-.167-2.23-.448v-1.375c.6.297 1.553.557 2.23.599v-1.615c-1.193-.462-2.24-.911-2.24-2.198 0-1.168 1.073-1.718 2.24-1.833v-.797h.713v.776c.795.034 1.514.194 2.156.479l-.49 1.219a5.634 5.634 0 0 0-1.666-.406v1.536c1.266.487 2.276.93 2.276 2.11 0 1.243-1.032 1.818-2.276 1.932z" fill="#fff"/><defs><filter id="a" x="0" y="0" width="100" height="100" filterUnits="userSpaceOnUse" color-interpolation-filters="sRGB"><feFlood flood-opacity="0" result="BackgroundImageFix"/><feColorMatrix in="SourceAlpha" values="0 0 0 0 0 0 0 0 0 0 0 0 0 0 0 0 0 0 127 0" result="hardAlpha"/><feOffset dy="5"/><feGaussianBlur stdDeviation="15"/><feColorMatrix values="0 0 0 0 0 0 0 0 0 0 0 0 0 0 0 0 0 0 0.05 0"/><feBlend in2="BackgroundImageFix" result="effect1_dropShadow_1_362"/><feBlend in="SourceGraphic" in2="effect1_dropShadow_1_362" result="shape"/></filter></defs></svg>