<svg width="24" height="20" fill="none" xmlns="http://www.w3.org/2000/svg"><path d="M23.953 2.324a10 10 0 0 1-2.825.775A4.958 4.958 0 0 0 23.291.376c-.951.555-2.005.959-3.127 1.184a4.92 4.92 0 0 0-8.384 4.482C7.69 5.849 4.067 3.884 1.64.916A4.822 4.822 0 0 0 .974 3.39c0 1.71.87 3.213 2.188 4.096A4.904 4.904 0 0 1 .934 6.87v.06a4.923 4.923 0 0 0 3.946 4.828 4.996 4.996 0 0 1-2.212.085 4.936 4.936 0 0 0 4.604 3.416 9.867 9.867 0 0 1-6.102 2.105c-.39 0-.779-.023-1.17-.067a13.995 13.995 0 0 0 7.557 2.21c9.053 0 13.998-7.497 13.998-13.985 0-.21 0-.42-.015-.63A9.936 9.936 0 0 0 24 2.344l-.047-.02z" fill="#fff"/></svg>