<svg width="100" height="100" fill="none" xmlns="http://www.w3.org/2000/svg"><g filter="url(#a)"><rect x="30" y="25" width="40" height="40" rx="10" fill="#FFAF2A"/></g><path d="M56 37H44a.667.667 0 0 0-.666.667V53L46 51l2 2 2-2 2 2 2-2 2.667 2V37.667A.666.666 0 0 0 56 37zm-5.333 10.667H46v-1.334h4.667v1.334zm0-2.667H46v-1.333h4.667V45zm0-2.667H46V41h4.667v1.333zM54 47.667h-2v-1.334h2v1.334zM54 45h-2v-1.333h2V45zm0-2.667h-2V41h2v1.333z" fill="#fff"/><defs><filter id="a" x="0" y="0" width="100" height="100" filterUnits="userSpaceOnUse" color-interpolation-filters="sRGB"><feFlood flood-opacity="0" result="BackgroundImageFix"/><feColorMatrix in="SourceAlpha" values="0 0 0 0 0 0 0 0 0 0 0 0 0 0 0 0 0 0 127 0" result="hardAlpha"/><feOffset dy="5"/><feGaussianBlur stdDeviation="15"/><feColorMatrix values="0 0 0 0 0 0 0 0 0 0 0 0 0 0 0 0 0 0 0.05 0"/><feBlend in2="BackgroundImageFix" result="effect1_dropShadow_21_935"/><feBlend in="SourceGraphic" in2="effect1_dropShadow_21_935" result="shape"/></filter></defs></svg>